<mxfile host="app.diagrams.net" modified="2022-08-06T03:19:00.044Z" agent="5.0 (Macintosh; Intel Mac OS X 10_15_7) AppleWebKit/537.36 (KHTML, like Gecko) Chrome/104.0.0.0 Safari/537.36" etag="zRtg0dPIsIlGrMQcOUrS" version="20.2.2" type="github">
  <diagram id="3228e29e-7158-1315-38df-8450db1d8a1d" name="Page-1">
    <mxGraphModel dx="1472" dy="996" grid="0" gridSize="10" guides="1" tooltips="1" connect="1" arrows="1" fold="1" page="1" pageScale="1" pageWidth="1150" pageHeight="400" background="#EFF1F3" math="0" shadow="0">
      <root>
        <mxCell id="0" />
        <mxCell id="1" parent="0" />
        <mxCell id="_b--vJwlM7hASdXM9_Sv-6" style="edgeStyle=none;rounded=0;orthogonalLoop=1;jettySize=auto;html=1;exitX=1;exitY=0.75;exitDx=0;exitDy=0;endArrow=classic;endFill=1;strokeColor=#4A919B;" edge="1" parent="1" source="c7gIeQ4KLr-0-EGLMsei-6" target="_b--vJwlM7hASdXM9_Sv-1">
          <mxGeometry relative="1" as="geometry" />
        </mxCell>
        <mxCell id="c7gIeQ4KLr-0-EGLMsei-6" value="" style="shape=image;verticalLabelPosition=bottom;verticalAlign=top;imageAspect=0;aspect=fixed;image=data:image/svg+xml,PHN2ZyB4bWxuczp4bGluaz0iaHR0cDovL3d3dy53My5vcmcvMTk5OS94bGluayIgeG1sbnM9Imh0dHA6Ly93d3cudzMub3JnLzIwMDAvc3ZnIiBoZWlnaHQ9IjIwMCIgd2lkdGg9IjIwMCIgdmVyc2lvbj0iMS4xIiB2aWV3Qm94PSIwIDAgMTAyNCAxMDI0IiBjbGFzcz0iaWNvbiI+PGRlZnM+PHN0eWxlIHR5cGU9InRleHQvY3NzIj5AZm9udC1mYWNlIHsgZm9udC1mYW1pbHk6IGZlZWRiYWNrLWljb25mb250OyBzcmM6IHVybCgiLy9hdC5hbGljZG4uY29tL3QvZm9udF8xMDMxMTU4X3U2OXc4eWh4ZHUud29mZjI/dD0xNjMwMDMzNzU5OTQ0IikgZm9ybWF0KCJ3b2ZmMiIpLCB1cmwoIi8vYXQuYWxpY2RuLmNvbS90L2ZvbnRfMTAzMTE1OF91Njl3OHloeGR1LndvZmY/dD0xNjMwMDMzNzU5OTQ0IikgZm9ybWF0KCJ3b2ZmIiksIHVybCgiLy9hdC5hbGljZG4uY29tL3QvZm9udF8xMDMxMTU4X3U2OXc4eWh4ZHUudHRmP3Q9MTYzMDAzMzc1OTk0NCIpIGZvcm1hdCgidHJ1ZXR5cGUiKTsgfSYjeGE7PC9zdHlsZT48L2RlZnM+PHBhdGggZmlsbD0iIzRBOTE5QiIgZD0iTTk2MCA5NDRINjRjLTM1LjI5NiAwLTY0LTI4LjcwNC02NC02NFY2NTZjMC0zNS4yOTYgMjguNzA0LTY0IDY0LTY0aDg5NmMzNS4yOTYgMCA2NCAyOC43MDQgNjQgNjR2MjI0YzAgMzUuMjk2LTI4LjcwNCA2NC02NCA2NHpNNjQgNjI0Yy0xNy42NDggMC0zMiAxNC4zNTItMzIgMzJ2MjI0YzAgMTcuNjQ4IDE0LjM1MiAzMiAzMiAzMmg4OTZjMTcuNjQ4IDAgMzItMTQuMzUyIDMyLTMyVjY1NmMwLTE3LjY0OC0xNC4zNTItMzItMzItMzJINjR6Ii8+PHBhdGggZmlsbD0iIzRBOTE5QiIgZD0iTTI0MCAxMDA4SDExMmExNiAxNiAwIDAgMS0xNi0xNnYtNjRhMTYgMTYgMCAwIDEgMTYtMTZoMTI4YTE2IDE2IDAgMCAxIDE2IDE2djY0YTE2IDE2IDAgMCAxLTE2IDE2eiBtLTExMi0zMmg5NnYtMzJIMTI4djMyek05MTIgMTAwOGgtMTI4YTE2IDE2IDAgMCAxLTE2LTE2di02NGExNiAxNiAwIDAgMSAxNi0xNmgxMjhhMTYgMTYgMCAwIDEgMTYgMTZ2NjRhMTYgMTYgMCAwIDEtMTYgMTZ6IG0tMTEyLTMyaDk2di0zMmgtOTZ2MzJ6TTg1Ni42NTYgNDYwLjE2YTE1Ljk4NCAxNS45ODQgMCAwIDEtNi44MTYtMzAuNDk2QzkxNi43NjggMzk4LjI3MiA5NjAgMzMwLjA5NiA5NjAgMjU2YzAtMTA1Ljg3Mi04Ni4xMjgtMTkyLTE5Mi0xOTJTNTc2IDE1MC4xMjggNTc2IDI1NmMwIDc0LjA4IDQzLjIzMiAxNDIuMjcyIDExMC4xNiAxNzMuNjY0YTE2IDE2IDAgMCAxLTEzLjYgMjguOTc2QzU5NC40OCA0MjEuOTg0IDU0NCAzNDIuNDQ4IDU0NCAyNTZjMC0xMjMuNTIgMTAwLjQ4LTIyNCAyMjQtMjI0czIyNCAxMDAuNDggMjI0IDIyNGMwIDg2LjQ0OC01MC40NjQgMTY1Ljk4NC0xMjguNTYgMjAyLjY0YTE1Ljk2OCAxNS45NjggMCAwIDEtNi43ODQgMS41MnoiLz48cGF0aCBmaWxsPSIjNEE5MTlCIiBkPSJNODUzLjI5NiAzODcuODRhMTYgMTYgMCAwIDEtOS40ODgtMjguODk2QTEyOC4yNCAxMjguMjQgMCAwIDAgODk2IDI1NmMwLTcwLjU3Ni01Ny40MjQtMTI4LTEyOC0xMjhzLTEyOCA1Ny40MjQtMTI4IDEyOGExMjguMjQgMTI4LjI0IDAgMCAwIDUyLjE5MiAxMDIuOTQ0IDE2IDE2IDAgMCAxLTE4Ljk0NCAyNS43OTJBMTYwLjMzNiAxNjAuMzM2IDAgMCAxIDYwOCAyNTZjMC04OC4yMjQgNzEuNzc2LTE2MCAxNjAtMTYwczE2MCA3MS43NzYgMTYwIDE2MGMwIDUwLjYwOC0yNC4zODQgOTguNzItNjUuMjQ4IDEyOC43MzZhMTUuOTIgMTUuOTIgMCAwIDEtOS40NCAzLjEwNHoiLz48cGF0aCBmaWxsPSIjNEE5MTlCIiBkPSJNODQ3LjY5NiAyNzYuNDhhMTYgMTYgMCAwIDEtMTUuNjY0LTE5LjM5MkM4MzIgMjIwLjY4OCA4MDMuMzEyIDE5MiA3NjggMTkycy02NCAyOC43MDQtNjQgNjRjMS44NzIgOC42NC0zLjYzMiAxNy42OTYtMTIuMjcyIDE5LjU2OC04LjU5MiAxLjg4OC0xNy4xODQtMy4wNC0xOS4wNTYtMTEuNjhDNjcyIDI2MC43MzYgNjcyIDI1Ny44ODggNjcyIDI1NmMwLTUyLjk0NCA0My4wNTYtOTYgOTYtOTZzOTYgNDMuMDU2IDk2IDk2YzAgMS45MDQgMCA0Ljc1Mi0wLjY3MiA3Ljg3MmExNi4wMTYgMTYuMDE2IDAgMCAxLTE1LjYzMiAxMi42MDh6Ii8+PHBhdGggZmlsbD0iIzRBOTE5QiIgZD0iTTgwMC4zMiA2MjRINzM2YTE1LjkzNiAxNS45MzYgMCAwIDEtMTEuNTY4LTQuOTYgMTUuOTA0IDE1LjkwNCAwIDAgMS00LjQxNi0xMS43NmwxNS4yNjQtMzM2LjAxNmEzMi43MzYgMzIuNzM2IDAgMCAxIDY1LjQyNCAwbDE1LjEzNiAzMzIuODMyQTE2IDE2IDAgMCAxIDgwMC4zMiA2MjR6IG0tNDcuNTItMzJoMzAuNDQ4bC0xNC41MTItMzE5LjI5Nkw3NTIuOCA1OTJ6TTE0NCA4MTZjLTI2LjQ2NCAwLTQ4LTIxLjUzNi00OC00OHMyMS41MzYtNDggNDgtNDggNDggMjEuNTM2IDQ4IDQ4LTIxLjUzNiA0OC00OCA0OHogbTAtNjRhMTYgMTYgMCAxIDAgMC4wMTYgMzIuMDE2QTE2IDE2IDAgMCAwIDE0NCA3NTJ6TTI3MiA4MTZjLTI2LjQ2NCAwLTQ4LTIxLjUzNi00OC00OHMyMS41MzYtNDggNDgtNDggNDggMjEuNTM2IDQ4IDQ4LTIxLjUzNiA0OC00OCA0OHogbTAtNjRhMTYgMTYgMCAxIDAgMC4wMTYgMzIuMDE2QTE2IDE2IDAgMCAwIDI3MiA3NTJ6TTQwMCA4MTZjLTI2LjQ2NCAwLTQ4LTIxLjUzNi00OC00OHMyMS41MzYtNDggNDgtNDggNDggMjEuNTM2IDQ4IDQ4LTIxLjUzNiA0OC00OCA0OHogbTAtNjRhMTYgMTYgMCAxIDAgMC4wMTYgMzIuMDE2QTE2IDE2IDAgMCAwIDQwMCA3NTJ6TTk0NCA4ODBjLTQuMTYgMC04LjMyLTEuNzYtMTEuMzYtNC42NEExNi44IDE2LjggMCAwIDEgOTI4IDg2NGMwLTQuMzIgMS43Ni04LjMyIDQuNjQtMTEuMzYgNS45Mi01LjkyIDE2LjgtNS45MiAyMi43MiAwIDIuODggMy4wNCA0LjY0IDcuMiA0LjY0IDExLjM2cy0xLjc2IDguMzItNC42NCAxMS4zNmMtMy4wNCAyLjg4LTcuMiA0LjY0LTExLjM2IDQuNjR6TTg4MCA4ODBjLTQuMTYgMC04LjMyLTEuNzYtMTEuMzYtNC42NC0yLjg4LTMuMDQtNC42NC03LjItNC42NC0xMS4zNnMxLjc2LTguMzIgNC42NC0xMS4zNmM1LjkyLTUuOTIgMTYuNjQtNS45MiAyMi43MiAwIDIuODggMy4wNCA0LjY0IDcuMiA0LjY0IDExLjM2cy0xLjc2IDguMzItNC42NCAxMS4zNmMtMy4wNCAzLjA0LTcuMiA0LjY0LTExLjM2IDQuNjR6TTgxNiA4ODBjLTQuMzIgMC04LjMyLTEuNzYtMTEuMzYtNC42NC0yLjg4LTMuMDQtNC42NC03LjItNC42NC0xMS4zNnMxLjc2LTguMzIgNC42NC0xMS4zNmM1LjkyLTUuOTIgMTYuOC01LjkyIDIyLjcyIDAgMi44OCAzLjA0IDQuNjQgNy4yIDQuNjQgMTEuMzZzLTEuNzYgOC4zMi00LjY0IDExLjM2Yy0zLjA0IDIuODgtNy4yIDQuNjQtMTEuMzYgNC42NHpNNzUyIDg4MGMtNC4xNiAwLTguMzItMS43Ni0xMS4zNi00LjY0LTIuODgtMy4wNC00LjY0LTcuMi00LjY0LTExLjM2czEuNzYtOC4zMiA0LjY0LTExLjM2YzYuMDgtNS45MiAxNi42NC01LjkyIDIyLjcyIDAgMi44OCAzLjA0IDQuNjQgNy4yIDQuNjQgMTEuMzZzLTEuNzYgOC4zMi00LjY0IDExLjM2Yy0zLjA0IDIuODgtNy4yIDQuNjQtMTEuMzYgNC42NHpNOTQ0IDgxNmMtNC4xNiAwLTguMzItMS43Ni0xMS4zNi00LjY0QTE2LjggMTYuOCAwIDAgMSA5MjggODAwYzAtNC4zMiAxLjc2LTguMzIgNC42NC0xMS4zNiA1LjkyLTUuOTIgMTYuOC01LjkyIDIyLjcyIDAgMi44OCAzLjA0IDQuNjQgNy4yIDQuNjQgMTEuMzZzLTEuNzYgOC4zMi00LjY0IDExLjM2Yy0zLjA0IDIuODgtNy4yIDQuNjQtMTEuMzYgNC42NHpNODgwIDgxNmMtNC4xNiAwLTguMzItMS43Ni0xMS4zNi00LjY0QTE2LjggMTYuOCAwIDAgMSA4NjQgODAwYzAtNC4zMiAxLjc2LTguMzIgNC42NC0xMS4zNiA1LjkyLTUuOTIgMTYuNjQtNS45MiAyMi43MiAwIDIuODggMy4wNCA0LjY0IDcuMiA0LjY0IDExLjM2cy0xLjc2IDguMzItNC42NCAxMS4zNmMtMy4wNCAyLjg4LTcuMiA0LjY0LTExLjM2IDQuNjR6TTgxNiA4MTZjLTQuMTYgMC04LjMyLTEuNzYtMTEuMzYtNC42NC0yLjg4LTMuMDQtNC42NC03LjItNC42NC0xMS4zNnMxLjc2LTguMzIgNC42NC0xMS4zNmM1LjkyLTUuOTIgMTYuOC01LjkyIDIyLjcyIDAgMi44OCAzLjA0IDQuNjQgNy4yIDQuNjQgMTEuMzZzLTEuNzYgOC4zMi00LjY0IDExLjM2Yy0zLjA0IDIuODgtNy4yIDQuNjQtMTEuMzYgNC42NHpNOTQ0IDc1MmMtNC4xNiAwLTguMzItMS43Ni0xMS4zNi00LjY0QTE2LjggMTYuOCAwIDAgMSA5MjggNzM2YzAtNC4zMiAxLjc2LTguMzIgNC42NC0xMS4zNiA1LjkyLTUuOTIgMTYuOC01LjkyIDIyLjcyIDAgMi44OCAzLjA0IDQuNjQgNy4yIDQuNjQgMTEuMzZzLTEuNzYgOC4zMi00LjY0IDExLjM2Yy0zLjA0IDIuODgtNy4yIDQuNjQtMTEuMzYgNC42NHpNODgwIDc1MmMtNC4xNiAwLTguMzItMS43Ni0xMS4zNi00LjY0QTE2LjggMTYuOCAwIDAgMSA4NjQgNzM2YzAtNC4zMiAxLjc2LTguMzIgNC42NC0xMS4zNiA1LjkyLTUuOTIgMTYuNjQtNS45MiAyMi43MiAwIDIuODggMy4wNCA0LjY0IDcuMiA0LjY0IDExLjM2cy0xLjc2IDguMzItNC42NCAxMS4zNmMtMy4wNCAyLjg4LTcuMiA0LjY0LTExLjM2IDQuNjR6TTk0NCA2ODhjLTQuMTYgMC04LjMyLTEuNzYtMTEuMzYtNC42NGExNi4xNiAxNi4xNiAwIDAgMSAwLTIyLjcyYzUuOTItNS45MiAxNi44LTUuOTIgMjIuNzIgMCAyLjg4IDMuMDQgNC42NCA3LjA0IDQuNjQgMTEuMzYgMCA0LjE2LTEuNzYgOC4zMi00LjY0IDExLjM2LTMuMDQgMi44OC03LjIgNC42NC0xMS4zNiA0LjY0eiIvPjwvc3ZnPg==" parent="1" vertex="1">
          <mxGeometry x="21" y="513" width="119" height="119" as="geometry" />
        </mxCell>
        <mxCell id="c7gIeQ4KLr-0-EGLMsei-20" style="edgeStyle=orthogonalEdgeStyle;rounded=0;orthogonalLoop=1;jettySize=auto;html=1;exitX=1;exitY=0.5;exitDx=0;exitDy=0;exitPerimeter=0;entryX=0;entryY=0.5;entryDx=0;entryDy=0;entryPerimeter=0;endArrow=none;endFill=0;strokeColor=#4A919B;" parent="1" source="c7gIeQ4KLr-0-EGLMsei-9" target="c7gIeQ4KLr-0-EGLMsei-12" edge="1">
          <mxGeometry relative="1" as="geometry" />
        </mxCell>
        <mxCell id="c7gIeQ4KLr-0-EGLMsei-9" value="" style="fontColor=#0066CC;verticalAlign=top;verticalLabelPosition=bottom;labelPosition=center;align=center;html=1;outlineConnect=0;gradientColor=none;gradientDirection=north;strokeWidth=2;shape=mxgraph.networks.router;fillColor=#4A919B;fontSize=30;" parent="1" vertex="1">
          <mxGeometry x="339" y="468.5" width="133.33" height="40" as="geometry" />
        </mxCell>
        <mxCell id="c7gIeQ4KLr-0-EGLMsei-19" style="edgeStyle=orthogonalEdgeStyle;rounded=0;orthogonalLoop=1;jettySize=auto;html=1;exitX=1;exitY=0.5;exitDx=0;exitDy=0;exitPerimeter=0;endArrow=none;endFill=0;strokeColor=#4A919B;" parent="1" source="c7gIeQ4KLr-0-EGLMsei-10" target="c7gIeQ4KLr-0-EGLMsei-13" edge="1">
          <mxGeometry relative="1" as="geometry" />
        </mxCell>
        <mxCell id="c7gIeQ4KLr-0-EGLMsei-10" value="" style="fontColor=#0066CC;verticalAlign=top;verticalLabelPosition=bottom;labelPosition=center;align=center;html=1;outlineConnect=0;gradientColor=none;gradientDirection=north;strokeWidth=2;shape=mxgraph.networks.router;fillColor=#4A919B;fontSize=30;" parent="1" vertex="1">
          <mxGeometry x="339" y="582.5" width="133.33" height="40" as="geometry" />
        </mxCell>
        <mxCell id="c7gIeQ4KLr-0-EGLMsei-21" style="edgeStyle=orthogonalEdgeStyle;rounded=0;orthogonalLoop=1;jettySize=auto;html=1;exitX=1;exitY=0.5;exitDx=0;exitDy=0;exitPerimeter=0;entryX=0;entryY=0.5;entryDx=0;entryDy=0;entryPerimeter=0;endArrow=none;endFill=0;strokeColor=#4A919B;" parent="1" source="c7gIeQ4KLr-0-EGLMsei-11" target="c7gIeQ4KLr-0-EGLMsei-14" edge="1">
          <mxGeometry relative="1" as="geometry" />
        </mxCell>
        <mxCell id="c7gIeQ4KLr-0-EGLMsei-11" value="" style="fontColor=#0066CC;verticalAlign=top;verticalLabelPosition=bottom;labelPosition=center;align=center;html=1;outlineConnect=0;gradientColor=none;gradientDirection=north;strokeWidth=2;shape=mxgraph.networks.router;fillColor=#4A919B;fontSize=30;" parent="1" vertex="1">
          <mxGeometry x="339" y="697.5" width="133.33" height="40" as="geometry" />
        </mxCell>
        <mxCell id="c7gIeQ4KLr-0-EGLMsei-31" style="edgeStyle=none;rounded=0;orthogonalLoop=1;jettySize=auto;html=1;exitX=1;exitY=0.5;exitDx=0;exitDy=0;exitPerimeter=0;entryX=0;entryY=0.5;entryDx=0;entryDy=0;entryPerimeter=0;endArrow=none;endFill=0;elbow=vertical;strokeColor=#4A919B;" parent="1" source="c7gIeQ4KLr-0-EGLMsei-12" target="c7gIeQ4KLr-0-EGLMsei-15" edge="1">
          <mxGeometry relative="1" as="geometry" />
        </mxCell>
        <mxCell id="c7gIeQ4KLr-0-EGLMsei-12" value="" style="fontColor=#0066CC;verticalAlign=top;verticalLabelPosition=bottom;labelPosition=center;align=center;html=1;outlineConnect=0;gradientColor=none;gradientDirection=north;strokeWidth=2;shape=mxgraph.networks.router;fillColor=#4A919B;fontSize=30;" parent="1" vertex="1">
          <mxGeometry x="556" y="468.5" width="133.33" height="40" as="geometry" />
        </mxCell>
        <mxCell id="c7gIeQ4KLr-0-EGLMsei-35" style="edgeStyle=none;rounded=0;orthogonalLoop=1;jettySize=auto;html=1;exitX=1;exitY=0.5;exitDx=0;exitDy=0;exitPerimeter=0;endArrow=none;endFill=0;elbow=vertical;strokeColor=#4A919B;" parent="1" source="c7gIeQ4KLr-0-EGLMsei-13" target="c7gIeQ4KLr-0-EGLMsei-16" edge="1">
          <mxGeometry relative="1" as="geometry" />
        </mxCell>
        <mxCell id="c7gIeQ4KLr-0-EGLMsei-13" value="" style="fontColor=#0066CC;verticalAlign=top;verticalLabelPosition=bottom;labelPosition=center;align=center;html=1;outlineConnect=0;gradientColor=none;gradientDirection=north;strokeWidth=2;shape=mxgraph.networks.router;fillColor=#4A919B;fontSize=30;" parent="1" vertex="1">
          <mxGeometry x="556" y="582.5" width="133.33" height="40" as="geometry" />
        </mxCell>
        <mxCell id="c7gIeQ4KLr-0-EGLMsei-39" style="edgeStyle=none;rounded=0;orthogonalLoop=1;jettySize=auto;html=1;exitX=1;exitY=0.5;exitDx=0;exitDy=0;exitPerimeter=0;entryX=0;entryY=0.5;entryDx=0;entryDy=0;entryPerimeter=0;endArrow=none;endFill=0;elbow=vertical;strokeColor=#4A919B;" parent="1" source="c7gIeQ4KLr-0-EGLMsei-14" target="c7gIeQ4KLr-0-EGLMsei-17" edge="1">
          <mxGeometry relative="1" as="geometry" />
        </mxCell>
        <mxCell id="c7gIeQ4KLr-0-EGLMsei-14" value="" style="fontColor=#0066CC;verticalAlign=top;verticalLabelPosition=bottom;labelPosition=center;align=center;html=1;outlineConnect=0;gradientColor=none;gradientDirection=north;strokeWidth=2;shape=mxgraph.networks.router;fillColor=#4A919B;fontSize=30;" parent="1" vertex="1">
          <mxGeometry x="556" y="697.5" width="133.33" height="40" as="geometry" />
        </mxCell>
        <mxCell id="c7gIeQ4KLr-0-EGLMsei-15" value="" style="fontColor=#0066CC;verticalAlign=top;verticalLabelPosition=bottom;labelPosition=center;align=center;html=1;outlineConnect=0;gradientColor=none;gradientDirection=north;strokeWidth=2;shape=mxgraph.networks.router;fillColor=#4A919B;fontSize=30;" parent="1" vertex="1">
          <mxGeometry x="766" y="468" width="133.33" height="40" as="geometry" />
        </mxCell>
        <mxCell id="c7gIeQ4KLr-0-EGLMsei-16" value="" style="fontColor=#0066CC;verticalAlign=top;verticalLabelPosition=bottom;labelPosition=center;align=center;html=1;outlineConnect=0;gradientColor=none;gradientDirection=north;strokeWidth=2;shape=mxgraph.networks.router;fillColor=#4A919B;fontSize=30;" parent="1" vertex="1">
          <mxGeometry x="766" y="582" width="133.33" height="40" as="geometry" />
        </mxCell>
        <mxCell id="c7gIeQ4KLr-0-EGLMsei-17" value="" style="fontColor=#0066CC;verticalAlign=top;verticalLabelPosition=bottom;labelPosition=center;align=center;html=1;outlineConnect=0;gradientColor=none;gradientDirection=north;strokeWidth=2;shape=mxgraph.networks.router;fillColor=#4A919B;fontSize=30;" parent="1" vertex="1">
          <mxGeometry x="766" y="697" width="133.33" height="40" as="geometry" />
        </mxCell>
        <mxCell id="c7gIeQ4KLr-0-EGLMsei-52" style="edgeStyle=none;rounded=0;orthogonalLoop=1;jettySize=auto;html=1;exitX=0;exitY=0.75;exitDx=0;exitDy=0;entryX=1;entryY=0.5;entryDx=0;entryDy=0;entryPerimeter=0;endArrow=none;endFill=0;elbow=vertical;strokeColor=#4A919B;" parent="1" source="c7gIeQ4KLr-0-EGLMsei-46" target="c7gIeQ4KLr-0-EGLMsei-17" edge="1">
          <mxGeometry relative="1" as="geometry" />
        </mxCell>
        <mxCell id="c7gIeQ4KLr-0-EGLMsei-53" style="edgeStyle=none;rounded=0;orthogonalLoop=1;jettySize=auto;html=1;exitX=0;exitY=0.75;exitDx=0;exitDy=0;entryX=1;entryY=0.5;entryDx=0;entryDy=0;entryPerimeter=0;endArrow=none;endFill=0;elbow=vertical;strokeColor=#4A919B;" parent="1" source="c7gIeQ4KLr-0-EGLMsei-46" target="c7gIeQ4KLr-0-EGLMsei-16" edge="1">
          <mxGeometry relative="1" as="geometry" />
        </mxCell>
        <mxCell id="c7gIeQ4KLr-0-EGLMsei-54" style="edgeStyle=none;rounded=0;orthogonalLoop=1;jettySize=auto;html=1;exitX=0;exitY=0.75;exitDx=0;exitDy=0;entryX=1;entryY=0.5;entryDx=0;entryDy=0;entryPerimeter=0;endArrow=none;endFill=0;elbow=vertical;strokeColor=#4A919B;" parent="1" source="c7gIeQ4KLr-0-EGLMsei-46" target="c7gIeQ4KLr-0-EGLMsei-15" edge="1">
          <mxGeometry relative="1" as="geometry" />
        </mxCell>
        <mxCell id="c7gIeQ4KLr-0-EGLMsei-46" value="" style="shape=image;verticalLabelPosition=bottom;verticalAlign=top;imageAspect=0;aspect=fixed;image=data:image/svg+xml,PHN2ZyB4bWxuczp4bGluaz0iaHR0cDovL3d3dy53My5vcmcvMTk5OS94bGluayIgeG1sbnM9Imh0dHA6Ly93d3cudzMub3JnLzIwMDAvc3ZnIiBoZWlnaHQ9IjIwMCIgd2lkdGg9IjIwMCIgdmVyc2lvbj0iMS4xIiB2aWV3Qm94PSIwIDAgMTAyNCAxMDI0IiBjbGFzcz0iaWNvbiI+PGRlZnM+PHN0eWxlIHR5cGU9InRleHQvY3NzIj5AZm9udC1mYWNlIHsgZm9udC1mYW1pbHk6IGZlZWRiYWNrLWljb25mb250OyBzcmM6IHVybCgiLy9hdC5hbGljZG4uY29tL3QvZm9udF8xMDMxMTU4X3U2OXc4eWh4ZHUud29mZjI/dD0xNjMwMDMzNzU5OTQ0IikgZm9ybWF0KCJ3b2ZmMiIpLCB1cmwoIi8vYXQuYWxpY2RuLmNvbS90L2ZvbnRfMTAzMTE1OF91Njl3OHloeGR1LndvZmY/dD0xNjMwMDMzNzU5OTQ0IikgZm9ybWF0KCJ3b2ZmIiksIHVybCgiLy9hdC5hbGljZG4uY29tL3QvZm9udF8xMDMxMTU4X3U2OXc4eWh4ZHUudHRmP3Q9MTYzMDAzMzc1OTk0NCIpIGZvcm1hdCgidHJ1ZXR5cGUiKTsgfSYjeGE7PC9zdHlsZT48L2RlZnM+PHBhdGggZmlsbD0iIzRBOTE5QiIgZD0iTTk2MCA5NDRINjRjLTM1LjI5NiAwLTY0LTI4LjcwNC02NC02NFY2NTZjMC0zNS4yOTYgMjguNzA0LTY0IDY0LTY0aDg5NmMzNS4yOTYgMCA2NCAyOC43MDQgNjQgNjR2MjI0YzAgMzUuMjk2LTI4LjcwNCA2NC02NCA2NHpNNjQgNjI0Yy0xNy42NDggMC0zMiAxNC4zNTItMzIgMzJ2MjI0YzAgMTcuNjQ4IDE0LjM1MiAzMiAzMiAzMmg4OTZjMTcuNjQ4IDAgMzItMTQuMzUyIDMyLTMyVjY1NmMwLTE3LjY0OC0xNC4zNTItMzItMzItMzJINjR6Ii8+PHBhdGggZmlsbD0iIzRBOTE5QiIgZD0iTTI0MCAxMDA4SDExMmExNiAxNiAwIDAgMS0xNi0xNnYtNjRhMTYgMTYgMCAwIDEgMTYtMTZoMTI4YTE2IDE2IDAgMCAxIDE2IDE2djY0YTE2IDE2IDAgMCAxLTE2IDE2eiBtLTExMi0zMmg5NnYtMzJIMTI4djMyek05MTIgMTAwOGgtMTI4YTE2IDE2IDAgMCAxLTE2LTE2di02NGExNiAxNiAwIDAgMSAxNi0xNmgxMjhhMTYgMTYgMCAwIDEgMTYgMTZ2NjRhMTYgMTYgMCAwIDEtMTYgMTZ6IG0tMTEyLTMyaDk2di0zMmgtOTZ2MzJ6TTg1Ni42NTYgNDYwLjE2YTE1Ljk4NCAxNS45ODQgMCAwIDEtNi44MTYtMzAuNDk2QzkxNi43NjggMzk4LjI3MiA5NjAgMzMwLjA5NiA5NjAgMjU2YzAtMTA1Ljg3Mi04Ni4xMjgtMTkyLTE5Mi0xOTJTNTc2IDE1MC4xMjggNTc2IDI1NmMwIDc0LjA4IDQzLjIzMiAxNDIuMjcyIDExMC4xNiAxNzMuNjY0YTE2IDE2IDAgMCAxLTEzLjYgMjguOTc2QzU5NC40OCA0MjEuOTg0IDU0NCAzNDIuNDQ4IDU0NCAyNTZjMC0xMjMuNTIgMTAwLjQ4LTIyNCAyMjQtMjI0czIyNCAxMDAuNDggMjI0IDIyNGMwIDg2LjQ0OC01MC40NjQgMTY1Ljk4NC0xMjguNTYgMjAyLjY0YTE1Ljk2OCAxNS45NjggMCAwIDEtNi43ODQgMS41MnoiLz48cGF0aCBmaWxsPSIjNEE5MTlCIiBkPSJNODUzLjI5NiAzODcuODRhMTYgMTYgMCAwIDEtOS40ODgtMjguODk2QTEyOC4yNCAxMjguMjQgMCAwIDAgODk2IDI1NmMwLTcwLjU3Ni01Ny40MjQtMTI4LTEyOC0xMjhzLTEyOCA1Ny40MjQtMTI4IDEyOGExMjguMjQgMTI4LjI0IDAgMCAwIDUyLjE5MiAxMDIuOTQ0IDE2IDE2IDAgMCAxLTE4Ljk0NCAyNS43OTJBMTYwLjMzNiAxNjAuMzM2IDAgMCAxIDYwOCAyNTZjMC04OC4yMjQgNzEuNzc2LTE2MCAxNjAtMTYwczE2MCA3MS43NzYgMTYwIDE2MGMwIDUwLjYwOC0yNC4zODQgOTguNzItNjUuMjQ4IDEyOC43MzZhMTUuOTIgMTUuOTIgMCAwIDEtOS40NCAzLjEwNHoiLz48cGF0aCBmaWxsPSIjNEE5MTlCIiBkPSJNODQ3LjY5NiAyNzYuNDhhMTYgMTYgMCAwIDEtMTUuNjY0LTE5LjM5MkM4MzIgMjIwLjY4OCA4MDMuMzEyIDE5MiA3NjggMTkycy02NCAyOC43MDQtNjQgNjRjMS44NzIgOC42NC0zLjYzMiAxNy42OTYtMTIuMjcyIDE5LjU2OC04LjU5MiAxLjg4OC0xNy4xODQtMy4wNC0xOS4wNTYtMTEuNjhDNjcyIDI2MC43MzYgNjcyIDI1Ny44ODggNjcyIDI1NmMwLTUyLjk0NCA0My4wNTYtOTYgOTYtOTZzOTYgNDMuMDU2IDk2IDk2YzAgMS45MDQgMCA0Ljc1Mi0wLjY3MiA3Ljg3MmExNi4wMTYgMTYuMDE2IDAgMCAxLTE1LjYzMiAxMi42MDh6Ii8+PHBhdGggZmlsbD0iIzRBOTE5QiIgZD0iTTgwMC4zMiA2MjRINzM2YTE1LjkzNiAxNS45MzYgMCAwIDEtMTEuNTY4LTQuOTYgMTUuOTA0IDE1LjkwNCAwIDAgMS00LjQxNi0xMS43NmwxNS4yNjQtMzM2LjAxNmEzMi43MzYgMzIuNzM2IDAgMCAxIDY1LjQyNCAwbDE1LjEzNiAzMzIuODMyQTE2IDE2IDAgMCAxIDgwMC4zMiA2MjR6IG0tNDcuNTItMzJoMzAuNDQ4bC0xNC41MTItMzE5LjI5Nkw3NTIuOCA1OTJ6TTE0NCA4MTZjLTI2LjQ2NCAwLTQ4LTIxLjUzNi00OC00OHMyMS41MzYtNDggNDgtNDggNDggMjEuNTM2IDQ4IDQ4LTIxLjUzNiA0OC00OCA0OHogbTAtNjRhMTYgMTYgMCAxIDAgMC4wMTYgMzIuMDE2QTE2IDE2IDAgMCAwIDE0NCA3NTJ6TTI3MiA4MTZjLTI2LjQ2NCAwLTQ4LTIxLjUzNi00OC00OHMyMS41MzYtNDggNDgtNDggNDggMjEuNTM2IDQ4IDQ4LTIxLjUzNiA0OC00OCA0OHogbTAtNjRhMTYgMTYgMCAxIDAgMC4wMTYgMzIuMDE2QTE2IDE2IDAgMCAwIDI3MiA3NTJ6TTQwMCA4MTZjLTI2LjQ2NCAwLTQ4LTIxLjUzNi00OC00OHMyMS41MzYtNDggNDgtNDggNDggMjEuNTM2IDQ4IDQ4LTIxLjUzNiA0OC00OCA0OHogbTAtNjRhMTYgMTYgMCAxIDAgMC4wMTYgMzIuMDE2QTE2IDE2IDAgMCAwIDQwMCA3NTJ6TTk0NCA4ODBjLTQuMTYgMC04LjMyLTEuNzYtMTEuMzYtNC42NEExNi44IDE2LjggMCAwIDEgOTI4IDg2NGMwLTQuMzIgMS43Ni04LjMyIDQuNjQtMTEuMzYgNS45Mi01LjkyIDE2LjgtNS45MiAyMi43MiAwIDIuODggMy4wNCA0LjY0IDcuMiA0LjY0IDExLjM2cy0xLjc2IDguMzItNC42NCAxMS4zNmMtMy4wNCAyLjg4LTcuMiA0LjY0LTExLjM2IDQuNjR6TTg4MCA4ODBjLTQuMTYgMC04LjMyLTEuNzYtMTEuMzYtNC42NC0yLjg4LTMuMDQtNC42NC03LjItNC42NC0xMS4zNnMxLjc2LTguMzIgNC42NC0xMS4zNmM1LjkyLTUuOTIgMTYuNjQtNS45MiAyMi43MiAwIDIuODggMy4wNCA0LjY0IDcuMiA0LjY0IDExLjM2cy0xLjc2IDguMzItNC42NCAxMS4zNmMtMy4wNCAzLjA0LTcuMiA0LjY0LTExLjM2IDQuNjR6TTgxNiA4ODBjLTQuMzIgMC04LjMyLTEuNzYtMTEuMzYtNC42NC0yLjg4LTMuMDQtNC42NC03LjItNC42NC0xMS4zNnMxLjc2LTguMzIgNC42NC0xMS4zNmM1LjkyLTUuOTIgMTYuOC01LjkyIDIyLjcyIDAgMi44OCAzLjA0IDQuNjQgNy4yIDQuNjQgMTEuMzZzLTEuNzYgOC4zMi00LjY0IDExLjM2Yy0zLjA0IDIuODgtNy4yIDQuNjQtMTEuMzYgNC42NHpNNzUyIDg4MGMtNC4xNiAwLTguMzItMS43Ni0xMS4zNi00LjY0LTIuODgtMy4wNC00LjY0LTcuMi00LjY0LTExLjM2czEuNzYtOC4zMiA0LjY0LTExLjM2YzYuMDgtNS45MiAxNi42NC01LjkyIDIyLjcyIDAgMi44OCAzLjA0IDQuNjQgNy4yIDQuNjQgMTEuMzZzLTEuNzYgOC4zMi00LjY0IDExLjM2Yy0zLjA0IDIuODgtNy4yIDQuNjQtMTEuMzYgNC42NHpNOTQ0IDgxNmMtNC4xNiAwLTguMzItMS43Ni0xMS4zNi00LjY0QTE2LjggMTYuOCAwIDAgMSA5MjggODAwYzAtNC4zMiAxLjc2LTguMzIgNC42NC0xMS4zNiA1LjkyLTUuOTIgMTYuOC01LjkyIDIyLjcyIDAgMi44OCAzLjA0IDQuNjQgNy4yIDQuNjQgMTEuMzZzLTEuNzYgOC4zMi00LjY0IDExLjM2Yy0zLjA0IDIuODgtNy4yIDQuNjQtMTEuMzYgNC42NHpNODgwIDgxNmMtNC4xNiAwLTguMzItMS43Ni0xMS4zNi00LjY0QTE2LjggMTYuOCAwIDAgMSA4NjQgODAwYzAtNC4zMiAxLjc2LTguMzIgNC42NC0xMS4zNiA1LjkyLTUuOTIgMTYuNjQtNS45MiAyMi43MiAwIDIuODggMy4wNCA0LjY0IDcuMiA0LjY0IDExLjM2cy0xLjc2IDguMzItNC42NCAxMS4zNmMtMy4wNCAyLjg4LTcuMiA0LjY0LTExLjM2IDQuNjR6TTgxNiA4MTZjLTQuMTYgMC04LjMyLTEuNzYtMTEuMzYtNC42NC0yLjg4LTMuMDQtNC42NC03LjItNC42NC0xMS4zNnMxLjc2LTguMzIgNC42NC0xMS4zNmM1LjkyLTUuOTIgMTYuOC01LjkyIDIyLjcyIDAgMi44OCAzLjA0IDQuNjQgNy4yIDQuNjQgMTEuMzZzLTEuNzYgOC4zMi00LjY0IDExLjM2Yy0zLjA0IDIuODgtNy4yIDQuNjQtMTEuMzYgNC42NHpNOTQ0IDc1MmMtNC4xNiAwLTguMzItMS43Ni0xMS4zNi00LjY0QTE2LjggMTYuOCAwIDAgMSA5MjggNzM2YzAtNC4zMiAxLjc2LTguMzIgNC42NC0xMS4zNiA1LjkyLTUuOTIgMTYuOC01LjkyIDIyLjcyIDAgMi44OCAzLjA0IDQuNjQgNy4yIDQuNjQgMTEuMzZzLTEuNzYgOC4zMi00LjY0IDExLjM2Yy0zLjA0IDIuODgtNy4yIDQuNjQtMTEuMzYgNC42NHpNODgwIDc1MmMtNC4xNiAwLTguMzItMS43Ni0xMS4zNi00LjY0QTE2LjggMTYuOCAwIDAgMSA4NjQgNzM2YzAtNC4zMiAxLjc2LTguMzIgNC42NC0xMS4zNiA1LjkyLTUuOTIgMTYuNjQtNS45MiAyMi43MiAwIDIuODggMy4wNCA0LjY0IDcuMiA0LjY0IDExLjM2cy0xLjc2IDguMzItNC42NCAxMS4zNmMtMy4wNCAyLjg4LTcuMiA0LjY0LTExLjM2IDQuNjR6TTk0NCA2ODhjLTQuMTYgMC04LjMyLTEuNzYtMTEuMzYtNC42NGExNi4xNiAxNi4xNiAwIDAgMSAwLTIyLjcyYzUuOTItNS45MiAxNi44LTUuOTIgMjIuNzIgMCAyLjg4IDMuMDQgNC42NCA3LjA0IDQuNjQgMTEuMzYgMCA0LjE2LTEuNzYgOC4zMi00LjY0IDExLjM2LTMuMDQgMi44OC03LjIgNC42NC0xMS4zNiA0LjY0eiIvPjwvc3ZnPg==" parent="1" vertex="1">
          <mxGeometry x="976" y="513" width="119" height="119" as="geometry" />
        </mxCell>
        <mxCell id="_b--vJwlM7hASdXM9_Sv-2" style="rounded=0;orthogonalLoop=1;jettySize=auto;html=1;exitX=1;exitY=0.5;exitDx=0;exitDy=0;entryX=0;entryY=0.5;entryDx=0;entryDy=0;entryPerimeter=0;endArrow=none;endFill=0;strokeColor=#4A919B;" edge="1" parent="1" source="_b--vJwlM7hASdXM9_Sv-1" target="c7gIeQ4KLr-0-EGLMsei-9">
          <mxGeometry relative="1" as="geometry">
            <mxPoint x="300" y="518.5" as="targetPoint" />
          </mxGeometry>
        </mxCell>
        <mxCell id="_b--vJwlM7hASdXM9_Sv-4" style="edgeStyle=none;rounded=0;orthogonalLoop=1;jettySize=auto;html=1;exitX=1;exitY=0.5;exitDx=0;exitDy=0;entryX=0;entryY=0.5;entryDx=0;entryDy=0;entryPerimeter=0;endArrow=none;endFill=0;strokeColor=#4A919B;fontSize=23;" edge="1" parent="1" source="_b--vJwlM7hASdXM9_Sv-1" target="c7gIeQ4KLr-0-EGLMsei-10">
          <mxGeometry relative="1" as="geometry" />
        </mxCell>
        <mxCell id="_b--vJwlM7hASdXM9_Sv-5" style="edgeStyle=none;rounded=0;orthogonalLoop=1;jettySize=auto;html=1;exitX=1;exitY=0.5;exitDx=0;exitDy=0;entryX=0;entryY=0.5;entryDx=0;entryDy=0;entryPerimeter=0;endArrow=none;endFill=0;strokeColor=#4A919B;" edge="1" parent="1" source="_b--vJwlM7hASdXM9_Sv-1" target="c7gIeQ4KLr-0-EGLMsei-11">
          <mxGeometry relative="1" as="geometry" />
        </mxCell>
        <mxCell id="_b--vJwlM7hASdXM9_Sv-1" value="" style="shape=image;verticalLabelPosition=bottom;verticalAlign=top;imageAspect=0;aspect=fixed;image=data:image/svg+xml,PHN2ZyB4bWxuczp4bGluaz0iaHR0cDovL3d3dy53My5vcmcvMTk5OS94bGluayIgeG1sbnM9Imh0dHA6Ly93d3cudzMub3JnLzIwMDAvc3ZnIiBoZWlnaHQ9IjIwMCIgd2lkdGg9IjI1MCIgdmVyc2lvbj0iMS4xIiB2aWV3Qm94PSIwIDAgMTI4MCAxMDI0IiBjbGFzcz0iaWNvbiI+PGRlZnM+PHN0eWxlIHR5cGU9InRleHQvY3NzIj5AZm9udC1mYWNlIHsgZm9udC1mYW1pbHk6IGZlZWRiYWNrLWljb25mb250OyBzcmM6IHVybCgiLy9hdC5hbGljZG4uY29tL3QvZm9udF8xMDMxMTU4X3U2OXc4eWh4ZHUud29mZjI/dD0xNjMwMDMzNzU5OTQ0IikgZm9ybWF0KCJ3b2ZmMiIpLCB1cmwoIi8vYXQuYWxpY2RuLmNvbS90L2ZvbnRfMTAzMTE1OF91Njl3OHloeGR1LndvZmY/dD0xNjMwMDMzNzU5OTQ0IikgZm9ybWF0KCJ3b2ZmIiksIHVybCgiLy9hdC5hbGljZG4uY29tL3QvZm9udF8xMDMxMTU4X3U2OXc4eWh4ZHUudHRmP3Q9MTYzMDAzMzc1OTk0NCIpIGZvcm1hdCgidHJ1ZXR5cGUiKTsgfSYjeGE7PC9zdHlsZT48L2RlZnM+PHBhdGggZmlsbD0iIzRBOTE5QiIgZD0iTTU3Ny40NTAyNTYgNjM5Ljk4OTJjMC0xMDQuNjc4MjM0IDMzLjkxOTQyOC0yMDYuNDM2NTE2IDk2LjAxODM3OS0yODkuODk1MTA4IDEwLjMzOTgyNi0xMy44Nzk3NjYgOC44OTk4NS0zMy4wNzk0NDItNC4yOTk5MjctNDQuMjc5MjUzbC00OS4zNzkxNjctNDEuOTU5MjkyYy0xMy45OTk3NjQtMTEuODk5Nzk5LTM1LjY1OTM5OC0xMC4xNzk4MjgtNDYuNzU5MjExIDQuNDU5OTI1QzQ5Mi4xNzE2OTUgMzc0LjgzMzY3NSA0NDcuOTkyNDQgNTA1LjU1MTQ2OSA0NDcuOTkyNDQgNjM5Ljk4OTJjMCAxMzQuNDU3NzMxIDQ0LjE3OTI1NCAyNjUuMTc1NTI1IDEyNS4wMzc4OSAzNzEuNjczNzI4IDExLjExOTgxMiAxNC42Mzk3NTMgMzIuNzU5NDQ3IDE2LjM1OTcyNCA0Ni43NTkyMTEgNC40NTk5MjVsNDkuMzc5MTY3LTQxLjk3OTI5MmMxMy4xNzk3NzgtMTEuMjE5ODExIDE0LjYxOTc1My0zMC4zOTk0ODcgNC4yOTk5MjctNDQuMjc5MjUyLTYyLjExODk1Mi04My40MTg1OTItOTYuMDE4MzgtMTg1LjE5Njg3NS05Ni4wMTgzNzktMjg5Ljg3NTEwOXpNNDQ3Ljk5MjQ0IDMxLjk5OTQ2YzAtMTcuNjc5NzAyLTE0LjMxOTc1OC0zMS45OTk0Ni0zMS45OTk0Ni0zMS45OTk0NmgtOTUuOTk4MzhDMjA1LjExNjUzOSAwIDExMS45OTgxMSA5My4xMTg0MjkgMTExLjk5ODExIDIwNy45OTY0OXYxMjcuOTk3ODRIMzEuOTk5NDZjLTE3LjY3OTcwMiAwLTMxLjk5OTQ2IDE0LjMxOTc1OC0zMS45OTk0NiAzMS45OTk0NnY5NS45OTgzOGMwIDE3LjY3OTcwMiAxNC4zMTk3NTggMzEuOTk5NDYgMzEuOTk5NDYgMzEuOTk5NDZoNzkuOTk4NjV2MjU1Ljk5NTY4YzAgMjYuMzk5NTU1LTIxLjU5OTYzNiA0Ny45OTkxOS00Ny45OTkxOSA0Ny45OTkxOUgzMS45OTk0NmMtMTcuNjc5NzAyIDAtMzEuOTk5NDYgMTQuMzE5NzU4LTMxLjk5OTQ2IDMxLjk5OTQ2djk1Ljk5ODM4YzAgMTcuNjc5NzAyIDE0LjMxOTc1OCAzMS45OTk0NiAzMS45OTk0NiAzMS45OTk0NmgzMS45OTk0NmMxMTQuODc4MDYxIDAgMjA3Ljk5NjQ5LTkzLjExODQyOSAyMDcuOTk2NDktMjA3Ljk5NjQ5VjQ5NS45OTE2M2g3OS45OTg2NWMxNy42Nzk3MDIgMCAzMS45OTk0Ni0xNC4zMTk3NTggMzEuOTk5NDYtMzEuOTk5NDZ2LTk1Ljk5ODM4YzAtMTcuNjc5NzAyLTE0LjMxOTc1OC0zMS45OTk0Ni0zMS45OTk0Ni0zMS45OTk0NmgtNzkuOTk4NjV2LTEyNy45OTc4NGMwLTI2LjM5OTU1NSAyMS41OTk2MzYtNDcuOTk5MTkgNDcuOTk5MTktNDcuOTk5MTloOTUuOTk4MzhjMTcuNjc5NzAyIDAgMzEuOTk5NDYtMTQuMzE5NzU4IDMxLjk5OTQ2LTMxLjk5OTQ2VjMxLjk5OTQ2eiBtNzA2Ljk0ODA3IDIzNi4zMTYwMTJjLTExLjExOTgxMi0xNC42Mzk3NTMtMzIuNzU5NDQ3LTE2LjM1OTcyNC00Ni43NTkyMTEtNC40NTk5MjVsLTQ5LjM3OTE2NiA0MS45NTkyOTJjLTEzLjE3OTc3OCAxMS4yMTk4MTEtMTQuNjE5NzUzIDMwLjM5OTQ4Ny00LjI5OTkyOCA0NC4yNzkyNTMgNjIuMDk4OTUyIDgzLjQxODU5MiA5Ni4wMTgzOCAxODUuMjE2ODc0IDk2LjAxODM4IDI4OS44OTUxMDggMCAxMDQuNjc4MjM0LTMzLjkxOTQyOCAyMDYuNDU2NTE2LTk2LjAxODM4IDI4OS44OTUxMDgtMTAuMzM5ODI2IDEzLjg3OTc2Ni04Ljg5OTg1IDMzLjA3OTQ0MiA0LjI5OTkyOCA0NC4yNzkyNTNsNDkuMzc5MTY2IDQxLjk3OTI5MmMxMy45OTk3NjQgMTEuODk5Nzk5IDM1LjY1OTM5OCAxMC4xNzk4MjggNDYuNzU5MjExLTQuNDU5OTI1QzEyMzUuNzk5MTQ2IDkwNS4xMjQ3MjYgMTI3OS45Nzg0IDc3NC40MjY5MzIgMTI3OS45Nzg0IDYzOS45ODkyYzAtMTM0LjQ1NzczMS00NC4xNzkyNTQtMjY1LjE3NTUyNS0xMjUuMDM3ODktMzcxLjY3MzcyOHogbS0xMDguMzM4MTcxIDQ2My43OTIxNzRMOTU0LjQ4Mzg5MyA2MzkuOTg5Mmw5Mi4xMTg0NDYtOTIuMTE4NDQ1YzEyLjQ5OTc4OS0xMi40OTk3ODkgMTIuNDk5Nzg5LTMyLjc1OTQ0NyAwLTQ1LjI1OTIzN2wtNDUuMjM5MjM3LTQ1LjIzOTIzNmMtMTIuNDk5Nzg5LTEyLjQ5OTc4OS0zMi43NTk0NDctMTIuNDk5Nzg5LTQ1LjI1OTIzNiAwTDg2My45ODU0MiA1NDkuNDkwNzI3bC05Mi4xMTg0NDUtOTIuMTE4NDQ1Yy0xMi40OTk3ODktMTIuNDk5Nzg5LTMyLjc1OTQ0Ny0xMi40OTk3ODktNDUuMjU5MjM3IDBsLTQ1LjIzOTIzNiA0NS4yMzkyMzZjLTEyLjQ5OTc4OSAxMi40OTk3ODktMTIuNDk5Nzg5IDMyLjc1OTQ0NyAwIDQ1LjI1OTIzN0w3NzMuNDg2OTQ3IDYzOS45ODkybC05Mi4xMTg0NDUgOTIuMTE4NDQ2Yy0xMi40OTk3ODkgMTIuNDk5Nzg5LTEyLjQ5OTc4OSAzMi43NTk0NDcgMCA0NS4yNTkyMzZsNDUuMjM5MjM2IDQ1LjIzOTIzN2MxMi40OTk3ODkgMTIuNDk5Nzg5IDMyLjc1OTQ0NyAxMi40OTk3ODkgNDUuMjU5MjM3IDBMODYzLjk4NTQyIDczMC40ODc2NzNsOTIuMTE4NDQ2IDkyLjExODQ0NmMxMi40OTk3ODkgMTIuNDk5Nzg5IDMyLjc1OTQ0NyAxMi40OTk3ODkgNDUuMjU5MjM2IDBsNDUuMjM5MjM3LTQ1LjIzOTIzN2MxMi40OTk3ODktMTIuNDk5Nzg5IDEyLjQ5OTc4OS0zMi43NTk0NDcgMC00NS4yNTkyMzZ6Ii8+PC9zdmc+" vertex="1" parent="1">
          <mxGeometry x="171" y="569.2" width="82" height="65.6" as="geometry" />
        </mxCell>
        <mxCell id="_b--vJwlM7hASdXM9_Sv-8" value="1" style="rounded=1;whiteSpace=wrap;html=1;fontColor=default;fillColor=#FDD276;fontSize=23;" vertex="1" parent="1">
          <mxGeometry x="714" y="454" width="31" height="30.43" as="geometry" />
        </mxCell>
        <mxCell id="_b--vJwlM7hASdXM9_Sv-9" value="2" style="rounded=1;whiteSpace=wrap;html=1;fontColor=default;fillColor=#FDD276;fontSize=23;" vertex="1" parent="1">
          <mxGeometry x="514" y="454" width="31" height="30.43" as="geometry" />
        </mxCell>
        <mxCell id="_b--vJwlM7hASdXM9_Sv-10" value="3" style="rounded=1;whiteSpace=wrap;html=1;fontColor=default;fillColor=#FDD276;fontSize=23;" vertex="1" parent="1">
          <mxGeometry x="483" y="454" width="31" height="30.43" as="geometry" />
        </mxCell>
        <mxCell id="_b--vJwlM7hASdXM9_Sv-11" value="" style="rounded=1;whiteSpace=wrap;html=1;fontColor=default;fillColor=#FDD276;strokeColor=none;" vertex="1" parent="1">
          <mxGeometry x="131" y="711.7800000000001" width="31" height="18.43" as="geometry" />
        </mxCell>
        <mxCell id="_b--vJwlM7hASdXM9_Sv-12" value="&lt;font style=&quot;font-size: 19px;&quot;&gt;五元组1的数据包&lt;/font&gt;" style="text;html=1;strokeColor=none;fillColor=none;align=center;verticalAlign=middle;whiteSpace=wrap;rounded=0;fontColor=default;" vertex="1" parent="1">
          <mxGeometry x="171" y="706" width="152" height="30" as="geometry" />
        </mxCell>
        <mxCell id="_b--vJwlM7hASdXM9_Sv-14" value="&lt;font style=&quot;font-size: 19px;&quot;&gt;五元组2的数据包&lt;/font&gt;" style="text;html=1;strokeColor=none;fillColor=none;align=center;verticalAlign=middle;whiteSpace=wrap;rounded=0;fontColor=default;" vertex="1" parent="1">
          <mxGeometry x="160" y="733.5" width="174" height="30" as="geometry" />
        </mxCell>
        <mxCell id="_b--vJwlM7hASdXM9_Sv-15" value="" style="rounded=1;whiteSpace=wrap;html=1;fontColor=default;fillColor=#9AC7BF;strokeColor=none;" vertex="1" parent="1">
          <mxGeometry x="131" y="739.2800000000001" width="31" height="18.43" as="geometry" />
        </mxCell>
        <mxCell id="_b--vJwlM7hASdXM9_Sv-16" value="&lt;font style=&quot;font-size: 19px;&quot;&gt;五元组3的数据包&lt;/font&gt;" style="text;html=1;strokeColor=none;fillColor=none;align=center;verticalAlign=middle;whiteSpace=wrap;rounded=0;fontColor=default;" vertex="1" parent="1">
          <mxGeometry x="155" y="760.5" width="184" height="30" as="geometry" />
        </mxCell>
        <mxCell id="_b--vJwlM7hASdXM9_Sv-17" value="" style="rounded=1;whiteSpace=wrap;html=1;fontColor=default;fillColor=#F19C99;strokeColor=none;" vertex="1" parent="1">
          <mxGeometry x="131" y="766.2800000000001" width="31" height="18.43" as="geometry" />
        </mxCell>
        <mxCell id="_b--vJwlM7hASdXM9_Sv-18" value="4" style="rounded=1;whiteSpace=wrap;html=1;fontColor=default;fillColor=#FDD276;fontSize=23;" vertex="1" parent="1">
          <mxGeometry x="264" y="513" width="31" height="30.43" as="geometry" />
        </mxCell>
        <mxCell id="_b--vJwlM7hASdXM9_Sv-19" value="1" style="rounded=1;whiteSpace=wrap;html=1;fontColor=default;fillColor=#9AC7BF;fontSize=23;" vertex="1" parent="1">
          <mxGeometry x="714" y="569.2" width="31" height="30.43" as="geometry" />
        </mxCell>
        <mxCell id="_b--vJwlM7hASdXM9_Sv-20" value="2" style="rounded=1;whiteSpace=wrap;html=1;fontColor=default;fillColor=#9AC7BF;fontSize=23;" vertex="1" parent="1">
          <mxGeometry x="295" y="569.2" width="31" height="30.43" as="geometry" />
        </mxCell>
        <mxCell id="_b--vJwlM7hASdXM9_Sv-21" value="1" style="rounded=1;whiteSpace=wrap;html=1;fontColor=default;fillColor=#F19C99;fontSize=23;" vertex="1" parent="1">
          <mxGeometry x="892" y="649" width="31" height="30.43" as="geometry" />
        </mxCell>
        <mxCell id="_b--vJwlM7hASdXM9_Sv-22" value="2" style="rounded=1;whiteSpace=wrap;html=1;fontColor=default;fillColor=#F19C99;fontSize=23;" vertex="1" parent="1">
          <mxGeometry x="499" y="682.85" width="31" height="30.43" as="geometry" />
        </mxCell>
        <mxCell id="_b--vJwlM7hASdXM9_Sv-23" value="3" style="rounded=1;whiteSpace=wrap;html=1;fontColor=default;fillColor=#F19C99;fontSize=23;" vertex="1" parent="1">
          <mxGeometry x="312" y="649" width="31" height="30.43" as="geometry" />
        </mxCell>
      </root>
    </mxGraphModel>
  </diagram>
</mxfile>
